<svg width="20" height="18" viewBox="0 0 20 18" fill="none" xmlns="http://www.w3.org/2000/svg">
<path d="M19 3H17M19 9H14M19 15H14M5 17V10.5612C5 10.3532 5 10.2492 4.97958 10.1497C4.96147 10.0615 4.93151 9.9761 4.89052 9.8958C4.84431 9.8054 4.77934 9.7242 4.64939 9.5617L1.35061 5.43826C1.22066 5.27583 1.15569 5.19461 1.10948 5.10417C1.06849 5.02393 1.03853 4.93852 1.02042 4.85026C1 4.75078 1 4.64677 1 4.43875V2.6C1 2.03995 1 1.75992 1.10899 1.54601C1.20487 1.35785 1.35785 1.20487 1.54601 1.10899C1.75992 1 2.03995 1 2.6 1H11.4C11.9601 1 12.2401 1 12.454 1.10899C12.6422 1.20487 12.7951 1.35785 12.891 1.54601C13 1.75992 13 2.03995 13 2.6V4.43875C13 4.64677 13 4.75078 12.9796 4.85026C12.9615 4.93852 12.9315 5.02393 12.8905 5.10417C12.8443 5.19461 12.7793 5.27583 12.6494 5.43826L9.3506 9.5617C9.2207 9.7242 9.1557 9.8054 9.1095 9.8958C9.0685 9.9761 9.0385 10.0615 9.0204 10.1497C9 10.2492 9 10.3532 9 10.5612V14L5 17Z" stroke="black" stroke-width="2" stroke-linecap="round" stroke-linejoin="round"/>
</svg>
